<svg xmlns='http://www.w3.org/2000/svg' height="250" width="250" >
    <linearGradient id="grad1" x1="0%" y1="0%" x2="0%" y2="100%">
      <stop offset="0%" style="stop-color:rgb(239,229,223);stop-opacity:1" />
      <stop offset="75%" style="stop-color:rgb(192,207,235);stop-opacity:1" />
    </linearGradient>

    <linearGradient id="grad2" x1="0%" y1="0%" x2="0%" y2="100%">
      <stop offset="0%" style="stop-color:rgb(192,207,235);stop-opacity:1" />
      <stop offset="75%" style="stop-color:rgb(255,201,252);stop-opacity:1" />
    </linearGradient>

    <rect width="250" height="170" fill="url(#grad1)"/>
    <rect width="250" height="81" y="169" fill="url(#grad2)"/>    

    <polygon points="30,50 200,70 90,210 " fill="rgb(192,207,235)"/>

    <rect x="15" y="15" width="150" height="15"/>
    <rect x="80" y="18" width="15" height="127"/>


    <line x1="30" x2="60" y1="160" y2="235" style="stroke:rgb(0,0,0);stroke-width:15"/>
    <line x1="90" x2="60" y1="190" y2="235" style="stroke:rgb(0,0,0);stroke-width:15"/>
    <line x1="90" x2="120" y1="190" y2="235" style="stroke:rgb(0,0,0);stroke-width:15"/>
    <line x1="150" x2="120" y1="160" y2="235" style="stroke:rgb(0,0,0);stroke-width:15"/>    

    <rect x="53" y="235" width="15" height="10"/>
    <rect x="113" y="235" width="15" height="10"/>
    <rect x="84" y="185.5" width="12" height="10"/>

    <g transform="translate(160, 60)">
        <path stroke-width="15" fill="none" stroke="black" d="M70 30 A20 20 0 1 0 50 50 A20 20 0 1 1 30 70" />
    </g>
   
</svg>

 